<svg width="80" height="80" viewBox="0 0 80 80" fill="none" xmlns="http://www.w3.org/2000/svg">
    <g clip-path="url(#clip0_23_2208)">
        <path d="M40.0006 50C45.5235 50 50.0006 45.5229 50.0006 40C50.0006 34.4772 45.5235 30 40.0006 30C34.4778 30 30.0006 34.4772 30.0006 40C30.0006 45.5229 34.4778 50 40.0006 50Z" stroke="white" stroke-width="5" stroke-linecap="round" stroke-linejoin="round"/>
        <path d="M64.6673 50C64.2236 51.0054 64.0912 52.1207 64.2873 53.202C64.4834 54.2833 64.9989 55.2811 65.7673 56.0667L65.9673 56.2667C66.5872 56.8859 67.0789 57.6211 67.4144 58.4304C67.7499 59.2398 67.9226 60.1073 67.9226 60.9834C67.9226 61.8595 67.7499 62.727 67.4144 63.5363C67.0789 64.3456 66.5872 65.0809 65.9673 65.7C65.3482 66.3199 64.6129 66.8116 63.8036 67.1471C62.9943 67.4826 62.1267 67.6553 61.2506 67.6553C60.3745 67.6553 59.507 67.4826 58.6977 67.1471C57.8884 66.8116 57.1531 66.3199 56.534 65.7L56.334 65.5C55.5484 64.7316 54.5506 64.2161 53.4693 64.02C52.388 63.824 51.2727 63.9563 50.2673 64.4C49.2814 64.8226 48.4406 65.5242 47.8483 66.4185C47.2561 67.3128 46.9383 68.3607 46.934 69.4334V70C46.934 71.7681 46.2316 73.4638 44.9814 74.7141C43.7311 75.9643 42.0354 76.6667 40.2673 76.6667C38.4992 76.6667 36.8035 75.9643 35.5533 74.7141C34.303 73.4638 33.6006 71.7681 33.6006 70V69.7C33.5748 68.5967 33.2177 67.5267 32.5757 66.629C31.9337 65.7314 31.0364 65.0476 30.0006 64.6667C28.9953 64.223 27.88 64.0906 26.7987 64.2867C25.7174 64.4827 24.7196 64.9982 23.934 65.7667L23.734 65.9667C23.1148 66.5865 22.3796 67.0783 21.5703 67.4138C20.7609 67.7493 19.8934 67.9219 19.0173 67.9219C18.1412 67.9219 17.2737 67.7493 16.4644 67.4138C15.6551 67.0783 14.9198 66.5865 14.3006 65.9667C13.6808 65.3476 13.1891 64.6123 12.8536 63.803C12.5181 62.9936 12.3454 62.1261 12.3454 61.25C12.3454 60.3739 12.5181 59.5064 12.8536 58.6971C13.1891 57.8878 13.6808 57.1525 14.3006 56.5334L14.5006 56.3334C15.2691 55.5478 15.7846 54.55 15.9807 53.4687C16.1767 52.3873 16.0444 51.2721 15.6006 50.2667C15.1781 49.2808 14.4765 48.44 13.5822 47.8477C12.6879 47.2555 11.6399 46.9376 10.5673 46.9334H10.0007C8.23254 46.9334 6.53685 46.231 5.28661 44.9807C4.03636 43.7305 3.33398 42.0348 3.33398 40.2667C3.33398 38.4986 4.03636 36.8029 5.28661 35.5527C6.53685 34.3024 8.23254 33.6 10.0007 33.6H10.3007C11.404 33.5742 12.474 33.2171 13.3716 32.5751C14.2693 31.933 14.953 31.0358 15.334 30C15.7777 28.9947 15.9101 27.8794 15.714 26.7981C15.5179 25.7168 15.0024 24.719 14.234 23.9334L14.034 23.7334C13.4141 23.1142 12.9224 22.379 12.5869 21.5696C12.2514 20.7603 12.0787 19.8928 12.0787 19.0167C12.0787 18.1406 12.2514 17.2731 12.5869 16.4638C12.9224 15.6545 13.4141 14.9192 14.034 14.3C14.6531 13.6802 15.3884 13.1885 16.1977 12.853C17.007 12.5175 17.8745 12.3448 18.7506 12.3448C19.6268 12.3448 20.4943 12.5175 21.3036 12.853C22.1129 13.1885 22.8482 13.6802 23.4673 14.3L23.6673 14.5C24.4529 15.2685 25.4507 15.784 26.532 15.9801C27.6133 16.1761 28.7286 16.0438 29.734 15.6H30.0006C30.9865 15.1775 31.8274 14.4759 32.4196 13.5816C33.0119 12.6873 33.3297 11.6393 33.334 10.5667V10C33.334 8.23193 34.0364 6.53624 35.2866 5.286C36.5368 4.03575 38.2325 3.33337 40.0006 3.33337C41.7688 3.33337 43.4644 4.03575 44.7147 5.286C45.9649 6.53624 46.6673 8.23193 46.6673 10V10.3C46.6716 11.3727 46.9894 12.4206 47.5817 13.3149C48.1739 14.2092 49.0147 14.9108 50.0006 15.3334C51.006 15.7771 52.1213 15.9095 53.2026 15.7134C54.2839 15.5173 55.2817 15.0018 56.0673 14.2334L56.2673 14.0334C56.8865 13.4135 57.6217 12.9218 58.431 12.5863C59.2404 12.2508 60.1079 12.0781 60.984 12.0781C61.8601 12.0781 62.7276 12.2508 63.5369 12.5863C64.3462 12.9218 65.0815 13.4135 65.7006 14.0334C66.3205 14.6525 66.8122 15.3878 67.1477 16.1971C67.4832 17.0064 67.6559 17.8739 67.6559 18.75C67.6559 19.6261 67.4832 20.4937 67.1477 21.303C66.8122 22.1123 66.3205 22.8476 65.7006 23.4667L65.5006 23.6667C64.7322 24.4523 64.2167 25.4501 64.0206 26.5314C63.8246 27.6127 63.9569 28.728 64.4006 29.7334V30C64.8232 30.9859 65.5248 31.8268 66.4191 32.419C67.3134 33.0113 68.3614 33.3291 69.434 33.3334H70.0006C71.7688 33.3334 73.4644 34.0358 74.7147 35.286C75.9649 36.5362 76.6673 38.2319 76.6673 40C76.6673 41.7681 75.9649 43.4638 74.7147 44.7141C73.4644 45.9643 71.7688 46.6667 70.0006 46.6667H69.7006C68.628 46.671 67.5801 46.9888 66.6858 47.5811C65.7915 48.1733 65.0899 49.0141 64.6673 50Z" stroke="white" stroke-width="5" stroke-linecap="round" stroke-linejoin="round"/>
    </g>
    <defs>
        <clipPath id="clip0_23_2208">
            <rect width="80" height="80" fill="white"/>
        </clipPath>
    </defs>
</svg>
